<svg width="32" height="32" viewBox="0 0 32 32" fill="none" xmlns="http://www.w3.org/2000/svg">
<path d="M8.75687 8.46166L9.65032 7.77039C10.4883 7.12271 11.6795 7.2436 12.4336 8.05245L13.9354 9.66401C14.5888 10.3658 14.7487 11.4133 14.3307 12.2529L13.1649 14.5906C13.6429 15.5617 14.3453 16.4331 15.2711 17.2049C16.1567 17.9555 17.1838 18.5207 18.2917 18.8671L20.1706 17.3745C20.8824 16.8099 21.8789 16.7995 22.6408 17.349L24.4185 18.6282C25.3056 19.2673 25.6275 20.4761 25.1725 21.4569L24.6856 22.5078C24.2001 23.5539 23.2088 24.2308 22.0837 24.2827C19.426 24.4072 16.4296 22.996 13.0908 20.0503C9.74705 17.0999 7.90259 14.234 7.55968 11.4557C7.41512 10.2866 7.8699 9.14737 8.75687 8.46166Z" fill="white" fill-opacity="0.95"/>
</svg>
